:SAMPLES-PER-SECOND 30
:FULLY-SPECIFIED
:DEGREES
57
root  21.0494 65.9407 49.7081 4.13104 1.98051 0.756719
RightUpLeg  -16.1691 5.50123 5.19466
RightLeg  45.0515 -12.2895 -13.161
RightFoot  -28.5852 0.157242 2.3174
RightToes  -9.71728 -0.0318431 -0.0894591
Spine  -7.85876 -0.798056 1.31625
Spine1  4.44925 -0.400299 5.64299
HEad  44.7436 -12.3389 -7.7972
LeftShoulder1  -7.76503e-019 -2.42657e-020 -1.34036e-021
LeftArm  -1.82682 25.9432 -77.9662
LeftForeArm  10.4721 -43.8219 -10.0397
LeftHand  5.41855 46.7346 14.3972
RightShoulder  7.45443e-017 -2.42657e-020 1.96277e-018
RightArm  -7.93874 -28.1689 73.3082
RightForeArm  16.4432 37.2724 7.53137
RightHand  -6.83087 25.4909 -25.4965
LeftUpLeg  -16.055 0.316254 -4.87447
LeftLeg  43.8928 9.85781 10.3929
LeftFoot  -23.1097 -0.0178356 -1.51898
LeftToes  -19.9741 1.06988e-006 1.21085e-007
58
root  20.9866 65.6489 50.0554 4.53558 1.3033 1.48572
RightUpLeg  -15.9126 6.30438 4.64957
RightLeg  45.1413 -12.0889 -13.0008
RightFoot  -30.6265 0.181462 2.29386
RightToes  -6.2259 -0.0186597 -0.0579526
Spine  -10.5065 -0.894073 0.0642543
Spine1  5.5242 -0.461601 6.01764
HEad  46.988 -12.1578 -7.93048
LeftShoulder1  -7.76503e-019 -2.42657e-020 -1.34036e-021
LeftArm  -10.0205 24.686 -80.8088
LeftForeArm  13.7964 -36.8207 -7.56171
LeftHand  6.92645 47.7251 17.7081
RightShoulder  7.45443e-017 -2.42657e-020 1.96277e-018
RightArm  -19.0031 -25.8461 76.1908
RightForeArm  21.8445 28.6359 5.00401
RightHand  -7.6963 25.0491 -28.9518
LeftUpLeg  -15.4303 0.350647 -5.43181
LeftLeg  43.516 10.2007 10.5947
LeftFoot  -24.7238 -0.033552 -1.55167
LeftToes  -20.7351 1.06988e-006 1.21085e-007
59
root  20.9588 65.7052 50.2524 4.1063 0.895219 1.19657
RightUpLeg  -15.0406 7.28813 5.25392
RightLeg  45.1497 -12.6285 -13.5407
RightFoot  -31.0307 0.204253 2.39338
RightToes  -5.84479 -0.0173374 -0.0544662
Spine  -11.1712 -0.965401 0.455717
Spine1  5.43576 -0.472437 5.844
HEad  50.1417 -11.2209 -8.78031
LeftShoulder1  -7.76503e-019 -2.42657e-020 -1.34036e-021
LeftArm  -18.2058 23.7623 -83.3232
LeftForeArm  16.1603 -30.6516 -5.79643
LeftHand  9.1425 50.7495 21.3848
RightShoulder  7.45443e-017 -2.42657e-020 1.96277e-018
RightArm  -31.1178 -24.0459 78.9446
RightForeArm  29.7572 21.5703 1.38485
RightHand  -7.45698 23.8622 -29.1965
LeftUpLeg  -14.2414 0.384938 -5.06514
LeftLeg  43.2018 9.99253 10.2849
LeftFoot  -25.8906 -0.0372572 -1.5106
LeftToes  -17.2949 1.06988e-006 1.21085e-007
60
root  20.9621 65.7614 50.4053 4.23067 0.509522 0.601461
RightUpLeg  -14.8854 7.13736 5.72508
RightLeg  44.8745 -12.1952 -12.99
RightFoot  -30.5502 0.18251 2.30621
RightToes  -6.77017 -0.0215033 -0.062916
Spine  -12.1578 -0.86208 1.27173
Spine1  5.62158 -0.4616 5.5796
HEad  51.5341 -10.8395 -9.22889
LeftShoulder1  -7.76503e-019 -2.42657e-020 -1.34036e-021
LeftArm  -21.6055 23.2415 -84.5723
LeftForeArm  12.696 -27.2338 -5.18425
LeftHand  9.55387 52.3678 21.4539
RightShoulder  7.45443e-017 -2.42657e-020 1.96277e-018
RightArm  -32.3602 -23.7077 80.252
RightForeArm  28.1086 19.2265 -1.541
RightHand  -6.69907 21.1871 -28.9245
LeftUpLeg  -14.3409 0.345409 -4.57681
LeftLeg  43.4971 10.6587 11.0293
LeftFoot  -25.6411 -0.048542 -1.61507
LeftToes  -18.0793 1.06988e-006 1.21085e-007
61
root  20.963 65.7305 50.5079 4.83637 0.134051 0.83635
RightUpLeg  -15.5608 5.98675 5.05543
RightLeg  44.8629 -10.9999 -11.7966
RightFoot  -30.7005 0.147244 2.0873
RightToes  -6.83347 -0.0274012 -0.0634922
Spine  -13.1488 -0.654671 0.855504
Spine1  5.82977 -0.401557 5.55718
HEad  50.8973 -11.0714 -9.15001
LeftShoulder1  -7.76503e-019 -2.42657e-020 -1.34036e-021
LeftArm  -18.5954 24.4276 -84.2349
LeftForeArm  9.01895 -28.2843 -5.62854
LeftHand  8.17923 51.0823 19.0829
RightShoulder  7.45443e-017 -2.42657e-020 1.96277e-018
RightArm  -32.4823 -25.7655 79.7054
RightForeArm  29.5525 21.2755 1.00431
RightHand  -5.77278 20.1668 -26.079
LeftUpLeg  -14.7822 0.88597 -4.89446
LeftLeg  43.5434 10.5575 10.9489
LeftFoot  -26.1841 -0.0513507 -1.60228
LeftToes  -17.1995 1.06988e-006 1.21085e-007
62
root  20.9215 65.7089 50.3955 4.44722 -0.265975 1.15121
RightUpLeg  -15.4655 6.63127 4.97101
RightLeg  45.217 -11.5142 -12.4572
RightFoot  -29.8408 0.153525 2.18809
RightToes  -8.9948 -0.0289579 -0.0830062
Spine  -11.376 -0.704682 0.031334
Spine1  4.89348 -0.370167 5.98044
HEad  48.8414 -11.2607 -8.58444
LeftShoulder1  -7.76503e-019 -2.42657e-020 -1.34036e-021
LeftArm  -13.5689 26.1047 -83.327
LeftForeArm  10.4168 -32.011 -6.46257
LeftHand  7.05043 49.4318 17.2534
RightShoulder  7.45443e-017 -2.42657e-020 1.96277e-018
RightArm  -25.5157 -28.5306 77.9382
RightForeArm  26.0625 25.8449 4.15623
RightHand  -5.75568 22.8683 -23.6041
LeftUpLeg  -14.6642 0.9367 -5.11174
LeftLeg  43.5408 10.7667 11.1494
LeftFoot  -25.4427 -0.0495366 -1.63632
LeftToes  -19.1079 1.06988e-006 1.21085e-007
63
root  20.9637 65.6399 50.395 3.96336 -0.430045 1.50619
RightUpLeg  -14.9055 5.63033 4.35402
RightLeg  45.0963 -10.8591 -11.7476
RightFoot  -31.551 0.153258 2.06465
RightToes  -6.55173 -0.0198084 -0.0609262
Spine  -10.0192 -0.55505 -0.414471
Spine1  4.89553 -0.305119 5.81011
HEad  46.7966 -11.4313 -7.93792
LeftShoulder1  -7.76503e-019 -2.42657e-020 -1.34036e-021
LeftArm  -8.2656 27.0544 -82.0863
LeftForeArm  12.2057 -35.7267 -7.34884
LeftHand  5.69376 47.6725 14.728
RightShoulder  7.45443e-017 -2.42657e-020 1.96277e-018
RightArm  -17.6202 -29.9136 76.5564
RightForeArm  22.5455 29.8234 5.24058
RightHand  -5.90204 25.2262 -22.3664
LeftUpLeg  -13.6853 0.80622 -5.6778
LeftLeg  43.4288 10.949 11.2824
LeftFoot  -25.8039 -0.0555708 -1.65988
LeftToes  -18.5418 1.06988e-006 1.21085e-007
64
root  20.9788 65.6016 50.344 4.52499 -0.453253 1.05308
RightUpLeg  -15.5322 5.70893 4.748
RightLeg  44.944 -10.6887 -11.516
RightFoot  -31.2077 0.142135 2.02392
RightToes  -6.32998 -0.0190247 -0.0589031
Spine  -9.92253 -0.651484 0.102513
Spine1  5.05844 -0.355702 5.72957
HEad  45.8222 -11.1571 -7.92388
LeftShoulder1  -7.76503e-019 -2.42657e-020 -1.34036e-021
LeftArm  -4.24961 27.0086 -81.5638
LeftForeArm  12.1414 -37.4054 -7.83347
LeftHand  5.99103 46.1148 16.089
RightShoulder  7.45443e-017 -2.42657e-020 1.96277e-018
RightArm  -11.5654 -29.8574 75.2388
RightForeArm  20.3839 31.9262 5.8698
RightHand  -5.69743 24.4249 -22.1907
LeftUpLeg  -14.3559 0.451612 -5.28956
LeftLeg  43.3888 11.4496 11.7443
LeftFoot  -25.7909 -0.0647026 -1.73278
LeftToes  -19.2699 1.06988e-006 1.21085e-007
